<svg xmlns="http://www.w3.org/2000/svg" viewBox="0 0 180 180" role="img" aria-label="RPF ícone oficial">
  <rect width="180" height="180" rx="24" fill="#000"/>
  <g fill="#fff">
    <rect x="20" y="42" width="48" height="96" fill="none" stroke="#fff" stroke-width="5"/>
    <polygon points="24,48 53,61 53,131 24,131" fill="#000"/>
    <path d="M88 104h19V83l16-13h29l10 11-8 7-9-10h-14l14 14v13l-15 15v25h-16v-18l12-12v-9l-10 10H88v-20z"/>
    <ellipse cx="107" cy="64" rx="12" ry="12"/>
    <path d="M83 60l25-15 20 2 3 2-34 20-14-2z"/>
  </g>
</svg>
